<svg xmlns="http://www.w3.org/2000/svg" width="106" height="69" fill="none" viewBox="0 0 106 69"><rect width="106" height="68" y=".284" fill="#4B465C" fill-opacity=".02" rx="4"/><path fill="#4B465C" fill-opacity=".08" d="M0 4.28436C0 2.07522 1.79086 0.284363 4 0.284363H14V68.2844H4C1.79086 68.2844 0 66.4935 0 64.2844V4.28436Z"/><rect width="8" height="2.874" x="3" y="24.892" fill="#4B465C" fill-opacity=".16" rx="1.437"/><rect width="7" height="7" x="3.5" y="6.344" fill="#4B465C" fill-opacity=".16" rx="2"/><rect width="8" height="2.874" x="3" y="35.766" fill="#4B465C" fill-opacity=".16" rx="1.437"/><rect width="8" height="2.874" x="3" y="46.64" fill="#4B465C" fill-opacity=".16" rx="1.437"/><rect width="8" height="2.874" x="3" y="57.514" fill="#4B465C" fill-opacity=".16" rx="1.437"/><rect width="76.888" height="9.067" x="21.884" y="5.098" fill="#4B465C" fill-opacity=".08" rx="2"/><rect width="4" height="4.533" x="26.109" y="7.364" fill="#4B465C" fill-opacity=".16" rx="1"/><rect width="4" height="4.533" x="79.752" y="7.364" fill="#4B465C" fill-opacity=".16" rx="1"/><rect width="4" height="4.533" x="85.752" y="7.364" fill="#4B465C" fill-opacity=".16" rx="1"/><rect width="4" height="4.533" x="91.752" y="7.364" fill="#4B465C" fill-opacity=".16" rx="1"/><rect width="47.722" height="18.133" x="51.462" y="20.492" fill="#4B465C" fill-opacity=".08" rx="2"/><rect width="22.594" height="18.133" x="21.884" y="20.492" fill="#4B465C" fill-opacity=".08" rx="2"/><rect width="77.3" height="18.133" x="21.884" y="44.025" fill="#4B465C" fill-opacity=".08" rx="2"/></svg>