<svg xmlns="http://www.w3.org/2000/svg" width="106" height="69" fill="none" viewBox="0 0 106 69"><rect width="106" height="68" y=".284" fill="#4B465C" fill-opacity=".02" rx="4"/><rect width="66" height="9.067" x="19.794" y="5.098" fill="#4B465C" fill-opacity=".08" rx="2"/><rect width="4" height="4.533" x="22.774" y="7.364" fill="#4B465C" fill-opacity=".16" rx="1"/><rect width="4" height="4.533" x="22.774" y="7.364" stroke="#DBDADE" rx="1"/><rect width="4" height="4.533" x="66.774" y="7.364" fill="#4B465C" fill-opacity=".16" rx="1"/><rect width="4" height="4.533" x="66.774" y="7.364" stroke="#DBDADE" rx="1"/><rect width="4" height="4.533" x="72.774" y="7.364" fill="#4B465C" fill-opacity=".16" rx="1"/><rect width="4" height="4.533" x="72.774" y="7.364" stroke="#DBDADE" rx="1"/><rect width="4" height="4.533" x="78.774" y="7.364" fill="#4B465C" fill-opacity=".16" rx="1"/><rect width="4" height="4.533" x="78.774" y="7.364" stroke="#DBDADE" rx="1"/><rect width="41" height="18.133" x="45.206" y="20.492" fill="#4B465C" fill-opacity=".08" rx="2"/><rect width="19.412" height="18.133" x="19.794" y="20.492" fill="#4B465C" fill-opacity=".08" rx="2"/><rect width="66.412" height="18.133" x="19.794" y="44.025" fill="#4B465C" fill-opacity=".08" rx="2"/></svg>