<svg xmlns="http://www.w3.org/2000/svg" width="106" height="69" fill="none" viewBox="0 0 106 69"><rect width="106" height="68" y=".218" fill="#4B465C" fill-opacity=".02" rx="4"/><path fill="#8692D0" fill-opacity=".08" d="M0 4.21762C0 2.00848 1.79086 0.217621 4 0.217621H28V68.2176H4C1.79086 68.2176 0 66.4268 0 64.2176V4.21762Z"/><rect width="18" height="2.874" x="5" y="24.825" fill="#8692D0" fill-opacity=".16" rx="1.437"/><rect width="10" height="10" x="9" y="6.277" fill="#8692D0" fill-opacity=".16" rx="2"/><rect width="18" height="2.874" x="5" y="35.699" fill="#8692D0" fill-opacity=".16" rx="1.437"/><rect width="18" height="2.874" x="5" y="46.573" fill="#8692D0" fill-opacity=".16" rx="1.437"/><rect width="18" height="2.874" x="5" y="57.447" fill="#8692D0" fill-opacity=".16" rx="1.437"/><rect width="66" height="9.067" x="34.772" y="5.031" fill="#8692D0" fill-opacity=".08" rx="2"/><rect width="4" height="4.533" x="37.752" y="7.298" fill="#8692D0" fill-opacity=".16" rx="1"/><rect width="4" height="4.533" x="81.752" y="7.298" fill="#8692D0" fill-opacity=".16" rx="1"/><rect width="4" height="4.533" x="87.752" y="7.298" fill="#8692D0" fill-opacity=".16" rx="1"/><rect width="4" height="4.533" x="93.752" y="7.298" fill="#8692D0" fill-opacity=".16" rx="1"/><rect width="41" height="18.133" x="59.609" y="20.425" fill="#8692D0" fill-opacity=".08" rx="2"/><rect width="19.412" height="18.133" x="34.772" y="20.425" fill="#8692D0" fill-opacity=".08" rx="2"/><rect width="66" height="18.133" x="34.772" y="43.959" fill="#8692D0" fill-opacity=".08" rx="2"/></svg>