<svg xmlns="http://www.w3.org/2000/svg" width="106" height="69" fill="none" viewBox="0 0 106 69"><rect width="106" height="68" y=".284" fill="#4B465C" fill-opacity=".02" rx="4"/><rect width="24.561" height="59.334" x="5.302" y="4.531" fill="#4B465C" fill-opacity=".08" rx="2"/><rect width="14.121" height="2.155" x="10.523" y="17.665" fill="#4B465C" fill-opacity=".16" rx="1.078"/><rect width="14.121" height="2.155" x="10.523" y="17.665" stroke="#DBDADE" rx="1.078"/><rect width="10.069" height="2.155" x="10.523" y="26.621" fill="#4B465C" fill-opacity=".16" rx="1.078"/><rect width="10.069" height="2.155" x="10.523" y="26.621" stroke="#DBDADE" rx="1.078"/><rect width="12.621" height="2.155" x="10.523" y="35.576" fill="#4B465C" fill-opacity=".16" rx="1.078"/><rect width="12.621" height="2.155" x="10.523" y="35.576" stroke="#DBDADE" rx="1.078"/><rect width="6.205" height="2.155" x="10.523" y="44.532" fill="#4B465C" fill-opacity=".16" rx="1.078"/><rect width="6.205" height="2.155" x="10.523" y="44.532" stroke="#DBDADE" rx="1.078"/><rect width="8.247" height="2.155" x="10.523" y="53.487" fill="#4B465C" fill-opacity=".16" rx="1.078"/><rect width="8.247" height="2.155" x="10.523" y="53.487" stroke="#DBDADE" rx="1.078"/><rect width="63.588" height="59.334" x="36.195" y="4.531" fill="#4B465C" fill-opacity=".08" rx="2"/><rect width="14.121" height="2.155" x="44.598" y="14.898" fill="#4B465C" fill-opacity=".16" rx="1.078"/><rect width="14.121" height="2.155" x="44.598" y="14.898" stroke="#DBDADE" rx="1.078"/><rect width="33.432" height="2.155" x="44.598" y="23.853" fill="#4B465C" fill-opacity=".16" rx="1.078"/><rect width="33.432" height="2.155" x="44.598" y="23.853" stroke="#DBDADE" rx="1.078"/><rect width="42" height="2.155" x="44.598" y="32.809" fill="#4B465C" fill-opacity=".16" rx="1.078"/><rect width="42" height="2.155" x="44.598" y="32.809" stroke="#DBDADE" rx="1.078"/><rect width="33.432" height="2.155" x="44.598" y="41.764" fill="#4B465C" fill-opacity=".16" rx="1.078"/><rect width="33.432" height="2.155" x="44.598" y="41.764" stroke="#DBDADE" rx="1.078"/><rect width="5.886" height="2.155" x="44.598" y="50.72" fill="#4B465C" fill-opacity=".16" rx="1.078"/><rect width="5.886" height="2.155" x="44.598" y="50.72" stroke="#DBDADE" rx="1.078"/></svg>