<svg xmlns="http://www.w3.org/2000/svg" width="106" height="68" fill="none" viewBox="0 0 106 68"><rect width="106" height="68" y="0" fill="#4B465C" fill-opacity=".02" rx="4"/><rect width="24.561" height="59.334" x="74.89" y="4.246" fill="#8692D0" fill-opacity=".08" rx="2"/><rect width="14.121" height="2.155" x="80.11" y="17.381" fill="#8692D0" fill-opacity=".16" rx="1.078"/><rect width="10.069" height="2.155" x="84.161" y="26.337" fill="#8692D0" fill-opacity=".16" rx="1.078"/><rect width="12.621" height="2.155" x="81.61" y="35.292" fill="#8692D0" fill-opacity=".16" rx="1.078"/><rect width="6.205" height="2.155" x="88.025" y="44.248" fill="#8692D0" fill-opacity=".16" rx="1.078"/><rect width="8.247" height="2.155" x="85.984" y="53.203" fill="#8692D0" fill-opacity=".16" rx="1.078"/><rect width="63.588" height="59.334" x="5.302" y="4.246" fill="#8692D0" fill-opacity=".08" rx="2"/><rect width="14.121" height="2.155" x="46.588" y="14.613" fill="#8692D0" fill-opacity=".16" rx="1.078"/><rect width="33.432" height="2.155" x="27.277" y="23.569" fill="#8692D0" fill-opacity=".16" rx="1.078"/><rect width="42" height="2.155" x="18.709" y="32.524" fill="#8692D0" fill-opacity=".16" rx="1.078"/><rect width="33.432" height="2.155" x="27.277" y="41.479" fill="#8692D0" fill-opacity=".16" rx="1.078"/><rect width="5.886" height="2.155" x="54.823" y="50.435" fill="#8692D0" fill-opacity=".16" rx="1.078"/></svg>