<svg xmlns="http://www.w3.org/2000/svg" width="106" height="69" fill="none" viewBox="0 0 106 69"><rect width="106" height="68" y=".218" fill="#4B465C" fill-opacity=".02" rx="4"/><path fill="#4B465C" d="M0 4.21765C0 2.00851 1.79086 0.217651 4 0.217651H28V68.2177H4C1.79086 68.2177 0 66.4268 0 64.2177V4.21765Z"/><path fill="#fff" fill-opacity=".2" d="M0 4.21765C0 2.00851 1.79086 0.217651 4 0.217651H28V68.2177H4C1.79086 68.2177 0 66.4268 0 64.2177V4.21765Z"/><rect width="18" height="2.874" x="5" y="24.825" fill="#4B465C" rx="1.437"/><rect width="18" height="2.874" x="5" y="24.825" fill="#fff" fill-opacity=".6" rx="1.437"/><rect width="10" height="10" x="9" y="6.277" fill="#4B465C" rx="2"/><rect width="10" height="10" x="9" y="6.277" fill="#fff" fill-opacity=".6" rx="2"/><rect width="18" height="2.874" x="5" y="35.699" fill="#4B465C" rx="1.437"/><rect width="18" height="2.874" x="5" y="35.699" fill="#fff" fill-opacity=".6" rx="1.437"/><rect width="18" height="2.874" x="5" y="46.573" fill="#4B465C" rx="1.437"/><rect width="18" height="2.874" x="5" y="46.573" fill="#fff" fill-opacity=".6" rx="1.437"/><rect width="18" height="2.874" x="5" y="57.447" fill="#4B465C" rx="1.437"/><rect width="18" height="2.874" x="5" y="57.447" fill="#fff" fill-opacity=".6" rx="1.437"/><rect width="66" height="9.067" x="34.772" y="5.031" fill="#4B465C" fill-opacity=".08" rx="2"/><rect width="4" height="4.533" x="37.752" y="7.298" fill="#4B465C" fill-opacity=".16" rx="1"/><rect width="4" height="4.533" x="81.752" y="7.298" fill="#4B465C" fill-opacity=".16" rx="1"/><rect width="4" height="4.533" x="87.752" y="7.298" fill="#4B465C" fill-opacity=".16" rx="1"/><rect width="4" height="4.533" x="93.752" y="7.298" fill="#4B465C" fill-opacity=".16" rx="1"/><rect width="41" height="18.133" x="59.609" y="20.425" fill="#4B465C" fill-opacity=".08" rx="2"/><rect width="19.412" height="18.133" x="34.772" y="20.425" fill="#4B465C" fill-opacity=".08" rx="2"/><rect width="66" height="18.133" x="34.772" y="43.959" fill="#4B465C" fill-opacity=".08" rx="2"/></svg>