<svg xmlns="http://www.w3.org/2000/svg" width="106" height="69" fill="none" viewBox="0 0 106 69"><rect width="106" height="68" y=".569" fill="#4B465C" fill-opacity=".02" rx="4"/><path fill="#4B465C" fill-opacity=".08" d="M0 4.56873C0 2.35959 1.79086 0.568726 4 0.568726H28V68.5687H4C1.79086 68.5687 0 66.7779 0 64.5687V4.56873Z"/><rect width="18" height="2.874" x="5" y="25.177" fill="#4B465C" fill-opacity=".16" rx="1.437"/><rect width="10" height="10" x="9" y="6.628" fill="#4B465C" fill-opacity=".16" rx="2"/><rect width="18" height="2.874" x="5" y="36.05" fill="#4B465C" fill-opacity=".16" rx="1.437"/><rect width="18" height="2.874" x="5" y="46.924" fill="#4B465C" fill-opacity=".16" rx="1.437"/><rect width="18" height="2.874" x="5" y="57.798" fill="#4B465C" fill-opacity=".16" rx="1.437"/><path fill="#4B465C" fill-opacity=".08" d="M32.7715 0.284363H98.7715V7.35103C98.7715 8.4556 97.8761 9.35103 96.7715 9.35103H34.7715C33.6669 9.35103 32.7715 8.4556 32.7715 7.35103V0.284363Z"/><rect width="4" height="4.533" x="35.752" y="2.551" fill="#4B465C" fill-opacity=".16" rx="1"/><rect width="4" height="4.533" x="79.752" y="2.551" fill="#4B465C" fill-opacity=".16" rx="1"/><rect width="4" height="4.533" x="85.752" y="2.551" fill="#4B465C" fill-opacity=".16" rx="1"/><rect width="4" height="4.533" x="91.752" y="2.551" fill="#4B465C" fill-opacity=".16" rx="1"/><rect width="41" height="18.133" x="58.184" y="13" fill="#4B465C" fill-opacity=".08" rx="2"/><rect width="19.412" height="18.133" x="32.772" y="13" fill="#4B465C" fill-opacity=".08" rx="2"/><rect width="66" height="28" x="33" y="36" fill="#4B465C" fill-opacity=".08" rx="2"/></svg>